<svg width="196" height="196" viewBox="0 0 196 196" fill="none" xmlns="http://www.w3.org/2000/svg">
<circle cx="98" cy="98" r="97" fill="#0F0F0F"/>
<circle cx="98" cy="98" r="97.5" stroke="white" stroke-opacity="0.4"/>
<path d="M98.0963 54.0004C122.461 54.0248 142.266 73.829 141.997 98.4868C141.729 122.632 122.169 142.242 97.5598 141.998C73.2922 141.778 53.9513 122.072 54.0001 97.9259C54.0489 73.4144 73.9507 53.9028 98.0963 54.0004ZM140.729 97.9747C140.656 74.3168 121.266 55.2686 98.0232 55.2442C74.6336 55.2442 55.2927 74.5851 55.2683 97.9015C55.244 121.315 74.3653 140.729 98.0476 140.705C121.657 140.681 140.632 121.437 140.729 97.9747Z" fill="white"/>
<path d="M87.5902 114.953C87.5902 114.441 87.5902 114.075 87.5902 113.734C87.5902 104.661 87.6146 95.5635 87.5658 86.4906C87.5658 84.6857 87.3707 82.8809 87.2488 81.0029C87.1024 81.0517 87.1756 81.0029 87.2732 81.0029C91.9316 81.0517 96.59 80.9785 101.248 81.2224C103.712 81.3444 106.126 82.1492 107.809 84.1492C110.785 87.6125 110.711 93.2709 106.614 96.661C104.517 98.3927 102.004 99.1731 99.346 99.4414C97.7363 99.5877 96.1266 99.6121 94.5168 99.6121C93.7364 99.6121 93.5413 99.8804 93.5413 100.636C93.5657 105.002 93.5657 109.344 93.5657 113.709C93.5657 114.929 93.4925 115.002 92.273 115.002C90.7365 114.953 89.2243 114.953 87.5902 114.953ZM93.5657 90.3197C93.5657 91.8075 93.5413 93.2952 93.59 94.783C93.59 95.0513 93.9803 95.5391 94.1998 95.5391C96.0778 95.4903 97.9802 95.5147 99.8094 95.1732C102.126 94.7586 103.517 92.7831 103.614 90.2709C103.687 88.2222 102.395 86.4174 100.322 85.6369C98.2972 84.8565 96.1753 85.1979 94.1022 85.1735C93.9315 85.1735 93.59 85.6613 93.59 85.9296C93.5413 87.393 93.5657 88.8564 93.5657 90.3197Z" fill="white"/>
<path d="M112.833 114.952C110.59 114.952 108.541 114.952 106.516 114.927C106.297 114.927 105.98 114.781 105.858 114.586C103.443 110.732 101.078 106.879 98.6875 103.001C98.6387 102.928 98.6387 102.83 98.6387 102.83C100.517 102.537 102.395 102.22 104.37 101.903C107.126 106.147 109.931 110.488 112.833 114.952Z" fill="white"/>
<path d="M92.7067 68.1701C91.8287 66.7555 91.0726 65.5117 90.2921 64.2922C90.1946 64.3166 90.0726 64.3654 89.9751 64.3898C90.1946 65.6824 90.3897 66.975 90.6092 68.2677C90.536 68.2921 90.4385 68.2921 90.3653 68.3165C90.0726 66.7311 89.7556 65.1458 89.4629 63.5605C90.0482 63.2678 90.4141 63.3166 90.7068 63.902C91.097 64.6824 91.5848 65.4141 92.0238 66.1702C92.1701 66.4141 92.3652 66.6336 92.7555 66.8043C92.9018 65.78 93.0482 64.7312 93.2189 63.7068C93.3164 63.1459 93.292 62.4874 94.2676 62.6825C94.5603 64.2434 94.8774 65.8531 95.2432 67.7311C94.9261 67.4628 94.7066 67.3653 94.6823 67.2189C94.4871 66.3165 94.3164 65.3897 94.1213 64.4629C94.0725 64.1946 93.9018 63.9507 93.8042 63.7068C93.7067 63.7068 93.6091 63.7068 93.5116 63.7312C93.2433 65.1458 92.9994 66.5116 92.7067 68.1701Z" fill="white"/>
<path d="M102.853 129.363C102.609 130.68 102.341 131.972 102.073 133.363C101.804 133.387 101.536 133.387 101.146 133.411C100.926 131.753 100.707 130.168 100.463 128.582C100.609 128.558 100.731 128.534 100.878 128.509C101.097 129.826 101.292 131.143 101.512 132.436C102.56 131.168 102.316 129.558 102.975 128.095C103.731 129.412 104.414 130.655 105.121 131.875C105.243 131.851 105.365 131.802 105.463 131.777C105.316 130.509 105.17 129.241 105.048 127.948C105.121 127.948 105.194 127.924 105.268 127.924C105.512 129.534 105.755 131.143 105.999 132.729C105.268 132.997 104.926 132.704 104.658 132.143C104.194 131.168 103.634 130.241 103.121 129.314C103.048 129.338 102.951 129.363 102.853 129.363Z" fill="white"/>
<path d="M99.5117 65.2183C99.5117 63.633 100.439 62.5111 101.804 62.4867C103.195 62.4623 104.365 63.6086 104.341 64.9988C104.316 66.6085 103.316 67.7305 101.902 67.7061C100.39 67.6817 99.5117 66.7549 99.5117 65.2183ZM103.634 64.9257C103.634 64.7549 103.634 64.5598 103.634 64.3891C103.585 63.6086 103.146 63.0964 102.463 62.8282C101.78 62.5599 101.243 62.8038 100.78 63.3403C100.121 64.072 99.902 65.6573 100.365 66.511C100.707 67.1207 101.195 67.511 101.975 67.4378C102.999 67.3402 103.634 66.4378 103.634 64.9257Z" fill="white"/>
<path d="M79.2673 71.0985C80.1698 71.4888 80.999 71.8302 81.8282 72.1961C81.8039 72.2692 81.8039 72.3424 81.7795 72.4156C81.5356 72.3912 81.2673 72.4156 81.0234 72.3424C80.3893 72.1229 79.8039 71.8302 79.1698 71.6351C78.9747 71.5619 78.6088 71.6595 78.4625 71.8058C78.3649 71.9034 78.4381 72.2936 78.56 72.4643C78.8771 72.9765 79.243 73.4399 79.5844 73.9277C79.5356 74.0009 79.4868 74.0984 79.4137 74.1716C79.2186 74.0497 78.9503 73.9765 78.8039 73.8058C77.9015 72.6351 77.0479 71.44 76.1211 70.2205C76.5113 69.9278 76.8772 69.6595 77.2186 69.3913C77.8284 68.9279 78.5113 68.6108 79.1942 69.123C79.9502 69.6352 79.6576 70.3181 79.2673 71.0985ZM78.1454 71.9034C78.56 71.1961 78.9991 70.7327 79.121 70.1961C79.1698 69.9766 78.6332 69.3181 78.3893 69.3425C77.8528 69.3913 77.3406 69.7327 76.7064 70.001C77.2186 70.6351 77.5601 71.1229 78.1454 71.9034Z" fill="white"/>
<path d="M119.266 126.826C118.681 127.192 118.168 127.655 117.559 127.875C117.168 128.021 116.51 128.021 116.217 127.777C115.925 127.533 115.778 126.85 115.925 126.484C116.193 125.704 115.851 125.436 115.242 125.216C114.705 125.021 114.193 124.777 113.705 124.338C113.998 124.362 114.29 124.338 114.559 124.436C115.168 124.68 115.778 124.997 116.388 125.216C116.583 125.289 116.9 125.192 117.071 125.07C117.168 124.997 117.12 124.631 117.022 124.46C116.803 124.045 116.485 123.655 116.242 123.241C116.168 123.094 116.217 122.875 116.217 122.68C116.29 122.655 116.364 122.631 116.437 122.606C117.388 123.997 118.29 125.362 119.266 126.826ZM117.144 127.948C117.729 127.411 118.437 126.997 118.388 126.753C118.266 126.24 117.754 125.801 117.412 125.338C117.022 125.753 116.485 126.119 116.29 126.606C116.217 126.875 116.754 127.362 117.144 127.948Z" fill="white"/>
<path d="M115.117 66.5361C115.751 66.9264 116.409 67.1946 116.897 67.6581C117.19 67.9263 117.361 68.5849 117.263 68.9263C117.141 69.2678 116.605 69.6824 116.214 69.7068C115.483 69.7799 115.361 70.0726 115.458 70.7067C115.531 71.2677 115.483 71.853 115.312 72.4872C115.214 72.2433 115.068 72.0238 115.044 71.7799C114.995 71.1701 115.044 70.5604 114.97 69.9507C114.946 69.6824 114.727 69.4629 114.605 69.219C114.361 69.3653 114.068 69.4629 113.897 69.6824C113.58 70.1214 113.336 70.6092 113.068 71.0726C112.971 71.0726 112.897 71.0482 112.8 71.0482C112.8 70.8287 112.727 70.5848 112.824 70.4141C113.531 69.1702 114.288 67.9019 115.117 66.5361ZM114.312 68.7556C114.922 69.0239 115.336 69.3409 115.8 69.3897C116.434 69.4629 116.922 68.9507 116.751 68.3897C116.605 67.9263 115.995 67.5849 115.58 67.1946C115.19 67.658 114.824 68.0971 114.312 68.7556Z" fill="white"/>
<path d="M80.9274 129.096C80.3176 128.682 79.6835 128.389 79.2445 127.926C78.9518 127.633 78.7567 127.048 78.8299 126.658C78.9031 126.34 79.4396 125.877 79.7567 125.877C80.7323 125.877 80.781 125.365 80.7079 124.633C80.6591 124.121 80.6591 123.609 80.7323 123.072C81.6591 123.999 80.4152 125.584 81.781 126.536C82.2444 125.828 82.7078 125.17 83.2688 124.316C83.3663 124.682 83.5127 124.926 83.4395 125.048C82.6346 126.389 81.781 127.706 80.9274 129.096ZM80.2445 125.779C79.8299 126.34 79.2689 126.828 79.3665 127.097C79.5372 127.584 80.0737 127.95 80.4396 128.365C80.8054 127.926 81.342 127.511 81.464 126.999C81.5127 126.731 80.8054 126.316 80.2445 125.779Z" fill="white"/>
<path d="M66.8281 91.5132C65.2184 91.5376 63.9258 90.5132 63.9258 89.1474C63.9258 87.7328 64.9014 86.6597 66.2428 86.6109C67.7549 86.5621 69.1207 87.684 69.1451 89.0255C69.1695 90.4645 68.1939 91.4888 66.8281 91.5132ZM68.8769 89.0255C68.8281 88.9279 68.7061 88.5865 68.4866 88.3182C67.7549 87.367 66.7062 87.1719 65.633 87.367C65.1696 87.4645 64.5355 87.8304 64.3892 88.2206C64.2185 88.684 64.2672 89.4401 64.5599 89.8791C65.1453 90.7571 66.1696 91.0254 67.194 91.001C68.1696 90.9522 68.8769 90.1718 68.8769 89.0255Z" fill="white"/>
<path d="M131.975 86.4888C131.975 87.9278 130.829 88.9521 129.195 88.9765C127.805 88.9765 126.854 87.9765 126.854 86.5132C126.854 85.1474 128.097 84.0742 129.683 84.0742C131.049 84.0742 131.951 85.0254 131.975 86.4888ZM129.317 88.4399C129.731 88.2204 130.512 87.9034 131.17 87.4156C131.634 87.0741 131.975 86.5376 131.683 85.8303C131.366 85.0986 130.853 84.4645 130.097 84.6108C129.244 84.7571 128.414 85.1717 127.683 85.6351C127.195 85.9522 126.878 86.5376 127.171 87.2205C127.488 88.0253 128.049 88.4399 129.317 88.4399Z" fill="white"/>
<path d="M132.147 108.732C132.147 110.268 131.294 111.244 129.928 111.268C128.294 111.293 127.05 110.219 127.025 108.805C127.025 107.366 127.977 106.317 129.367 106.366C130.806 106.439 132.269 107.268 132.147 108.732ZM131.976 108.951C131.952 108.878 131.928 108.683 131.855 108.537C131.44 107.537 129.659 106.683 128.635 106.951C127.903 107.146 127.318 107.659 127.294 108.366C127.294 108.878 127.611 109.561 128.001 109.878C128.538 110.317 129.269 110.585 129.977 110.707C130.952 110.927 131.976 109.976 131.976 108.951Z" fill="white"/>
<path d="M94.2446 128.267C95.3177 128.413 95.9518 128.925 96.0982 129.803C96.3421 131.169 95.9031 132.511 95.0494 132.974C94.2446 133.438 92.708 133.291 92.0495 132.681C91.2934 131.974 91.2203 130.267 91.9032 129.121C92.4154 128.267 93.2934 127.95 94.2934 128.267C93.3665 128.218 92.6836 128.657 92.3422 129.462C91.9276 130.389 91.7568 131.413 92.391 132.316C93.1227 133.389 94.4885 133.291 95.1714 132.194C96.025 130.803 95.6836 129.291 94.2446 128.267Z" fill="white"/>
<path d="M69.8055 109.196C69.9274 110.708 68.5372 111.537 67.0007 111.634C65.6592 111.732 64.7568 110.635 64.6593 109.171C64.5861 107.927 65.8543 106.781 67.5128 106.757C68.8786 106.708 69.8055 107.708 69.8055 109.196ZM67.8055 107.269C66.8543 107.318 66.0495 107.659 65.3909 108.366C64.6837 109.147 64.6837 109.854 65.4397 110.586C66.269 111.391 67.7567 111.244 68.903 110.244C69.464 109.757 69.8055 109.171 69.5128 108.391C69.1957 107.659 68.6591 107.22 67.8055 107.269Z" fill="white"/>
<path d="M125.634 121.168C125.121 121.607 124.707 121.972 124.292 122.338C123.609 122.924 122.902 122.997 122.317 122.485C121.78 122.046 121.609 121.046 122.195 120.509C123.146 119.631 122.658 119.143 121.926 118.607C121.902 118.582 121.878 118.582 121.853 118.558C121.756 118.314 121.658 118.07 121.561 117.826C121.78 117.899 122.073 117.924 122.219 118.07C122.829 118.582 123.365 119.143 123.951 119.68C124.487 120.143 124.975 120.582 125.634 121.168ZM123.048 119.631C122.756 120.314 122.341 120.85 122.365 121.338C122.39 121.68 123.048 122.216 123.414 122.216C123.878 122.216 124.365 121.753 124.926 121.436C124.243 120.777 123.756 120.314 123.048 119.631Z" fill="white"/>
<path d="M72.8255 77.7314C73.8254 75.7315 73.8742 75.1217 73.0694 74.6339C72.167 74.0974 71.3621 74.5852 70.1914 76.3656C71.2889 77.2924 72.3621 78.2192 73.4596 79.0972C73.6547 79.2436 73.9718 79.268 74.2157 79.3655C74.2401 79.268 74.2401 79.146 74.2645 79.0484C73.7767 78.6094 73.2889 78.1704 72.8255 77.7314ZM72.3621 77.4387C71.8499 76.9753 71.3377 76.5363 70.6304 75.9022C71.2645 75.512 71.7036 75.073 72.2401 74.9754C72.5328 74.9266 73.1669 75.4632 73.1913 75.7803C73.2157 76.3168 72.8986 76.9022 72.7523 77.4631C72.606 77.4631 72.484 77.4631 72.3621 77.4387Z" fill="white"/>
<path d="M124.584 81.3892C123.608 81.1697 122.779 79.9746 122.925 78.999C123.12 77.6576 124.51 76.5113 125.876 76.5601C127.12 76.6089 128.022 77.5601 128.071 78.7064C127.632 78.2186 127.242 77.4869 126.608 77.1454C125.827 76.7064 125.023 77.2186 124.413 77.7796C122.949 79.0722 122.998 79.8039 124.584 81.3892Z" fill="white"/>
<path d="M68.438 116.416C68.9501 117.928 69.6574 118.659 70.4379 118.611C71.4623 118.562 72.8037 117.464 73.0964 116.416C73.4134 115.318 72.633 114.781 71.8525 114.269C72.7061 114.22 73.5598 115.245 73.6085 116.318C73.6573 117.635 72.2671 118.952 70.8038 118.976C69.3404 119.001 68.4136 118.098 68.438 116.416Z" fill="white"/>
<path d="M122.411 71.6356C122.337 71.8551 122.289 72.1234 122.167 72.2941C121.313 73.2697 120.435 74.2209 119.533 75.1721C119.411 75.3184 119.142 75.3428 118.947 75.4404C118.996 75.2209 118.972 74.9282 119.094 74.7819C120.069 73.6843 121.094 72.5868 122.094 71.5137C122.191 71.5381 122.313 71.5868 122.411 71.6356Z" fill="white"/>
<path d="M77.6798 120.366C76.4603 121.634 75.314 122.853 74.1677 124.048C74.0946 124.024 73.997 124.024 73.9238 124C73.9482 123.78 73.8994 123.512 73.997 123.365C74.9726 121.975 77.1432 120.122 77.6798 120.366Z" fill="white"/>
<path d="M83.6824 65.5117C83.8532 65.6337 84.0971 65.7312 84.1702 65.902C84.7556 67.1214 85.3165 68.3409 85.8531 69.5848C85.9263 69.7311 85.8043 69.9506 85.7556 70.1457C85.6336 70.0482 85.4385 69.9506 85.3653 69.8287C84.7312 68.4629 84.1215 67.097 83.5117 65.7312C83.5849 65.6581 83.6337 65.5849 83.6824 65.5117Z" fill="white"/>
<path d="M131.507 97.9513C130.848 97.9757 130.531 97.7562 130.507 97.122C130.483 96.4879 130.848 96.1464 131.361 96.244C131.726 96.3172 132.214 96.7318 132.287 97.0976C132.385 97.561 132.044 97.9757 131.507 97.9513Z" fill="white"/>
<path d="M109.8 126.342C110.532 127.073 111.825 130.586 111.41 131.171C110.752 129.537 110.142 127.976 109.508 126.439C109.63 126.415 109.703 126.366 109.8 126.342Z" fill="white"/>
<path d="M65.4151 97.561C66.0248 97.5366 66.3906 97.9024 66.2443 98.439C66.1467 98.8048 65.6589 99.0731 65.3663 99.3658C65.0736 99.0487 64.6102 98.7561 64.5126 98.3902C64.3907 97.8293 64.8297 97.5366 65.4151 97.561Z" fill="white"/>
</svg>
