<svg width="72" height="21" viewBox="0 0 72 21" fill="none" xmlns="http://www.w3.org/2000/svg">
<path d="M10.4631 0L0 10.2789L10.4631 20.5578L20.9262 10.2789L10.4631 0ZM11.009 3.08136V2.05479L18.8346 9.74257H11.009V3.08136V3.08136ZM9.91715 3.08136V9.74092H2.09161L9.91715 2.05479V3.08136ZM9.91715 10.8152V18.503L2.09161 10.8152H9.91715ZM18.8346 10.8152L11.009 18.503V10.8152H18.8346V10.8152Z" fill="black"/>
<path opacity="0.3" d="M9.91709 3.08135V9.74091H9.70274H2.09155L9.91709 2.05478V3.08135Z" fill="black"/>
<path opacity="0.3" d="M18.8346 10.8152L11.009 18.503V10.8152H18.8061H18.8346Z" fill="black"/>
<path d="M37.2319 2.14172H36.9901C36.5233 2.14172 36.1428 2.51557 36.1428 2.97412V4.15274C34.9562 2.67578 33.1209 1.72552 31.0626 1.72552C27.4934 1.72552 24.5916 4.57814 24.5916 8.08269C24.5916 11.5872 27.4953 14.4399 31.0626 14.4399C33.1209 14.4399 34.958 13.4896 36.1428 12.0126V13.1913C36.1428 13.6498 36.5233 14.0237 36.9901 14.0237H37.2319C37.6987 14.0237 38.0792 13.6498 38.0792 13.1913V2.97044C38.0792 2.51188 37.6987 2.13804 37.2319 2.13804V2.14172ZM31.0626 12.7769C28.4288 12.7769 26.2843 10.672 26.2843 8.08269C26.2843 5.49341 28.427 3.38848 31.0626 3.38848C33.6983 3.38848 35.841 5.49341 35.841 8.08269C35.841 10.672 33.6983 12.7769 31.0626 12.7769Z" fill="black"/>
<path d="M70.862 2.14172H70.6202C70.1534 2.14172 69.7729 2.51557 69.7729 2.97412V4.15274C68.5863 2.67578 66.7511 1.72552 64.6928 1.72552C61.1235 1.72552 58.2217 4.57814 58.2217 8.08269C58.2217 11.5872 61.1254 14.4399 64.6928 14.4399C66.7511 14.4399 68.5882 13.4896 69.7729 12.0126V13.1913C69.7729 13.6498 70.1534 14.0237 70.6202 14.0237H70.862C71.3288 14.0237 71.7093 13.6498 71.7093 13.1913V2.97044C71.7093 2.51188 71.3288 2.13804 70.862 2.13804V2.14172ZM64.6928 12.7769C62.059 12.7769 59.9144 10.672 59.9144 8.08269C59.9144 5.49341 62.0571 3.38848 64.6928 3.38848C67.3284 3.38848 69.4711 5.49341 69.4711 8.08269C69.4711 10.672 67.3284 12.7769 64.6928 12.7769Z" fill="black"/>
<path d="M46.0632 1.72552H42.1922C41.9185 1.72552 41.671 1.84339 41.4948 2.03307C41.2586 2.1896 41.103 2.46216 41.103 2.77339V13.5633C41.103 14.0476 41.4836 14.4417 41.9503 14.4417H42.1922C42.6589 14.4417 43.0395 14.0476 43.0395 13.5633V3.73286H46.0632C46.5974 3.73286 47.0305 3.28351 47.0305 2.72919C47.0305 2.17487 46.5974 1.72552 46.0632 1.72552V1.72552Z" fill="black"/>
<path d="M56.5963 12.9868L56.5869 12.9813C56.4014 12.8856 56.2214 12.7806 56.0471 12.6664C55.8577 12.5412 55.6234 12.497 55.406 12.5633C54.8417 12.7364 54.2325 12.81 53.5988 12.7603C51.2537 12.5762 49.3698 10.6977 49.2179 8.39208C49.038 5.66469 51.2462 3.38848 53.985 3.38848C54.4762 3.38848 54.9504 3.46215 55.3966 3.59842C55.614 3.66472 55.8484 3.63157 56.0358 3.50634C56.212 3.38848 56.3957 3.27983 56.5869 3.18222L56.5963 3.1767C56.99 2.97597 56.9731 2.42533 56.5663 2.25222C55.7602 1.906 54.8717 1.71632 53.9363 1.72369C50.412 1.74947 47.5214 4.60577 47.5139 8.06796C47.5064 11.5799 50.412 14.4399 53.985 14.4399C54.9073 14.4399 55.7846 14.2483 56.5794 13.9058C56.9787 13.7327 56.9825 13.1839 56.5963 12.9868V12.9868ZM53.8332 2.55793C53.8538 2.55793 53.8725 2.55793 53.8913 2.55793C53.8482 2.55793 53.8051 2.55793 53.7619 2.56161C53.7844 2.56161 53.8088 2.55793 53.8313 2.55793H53.8332ZM48.3631 7.97588C48.3631 7.94273 48.3631 7.91142 48.3631 7.87827C48.3631 7.86354 48.365 7.85065 48.365 7.83592C48.3631 7.88196 48.3631 7.92984 48.3612 7.97588H48.3631Z" fill="black"/>
<path d="M50.2033 18.4305V18.2081H50.8979C50.9937 18.2081 51.0792 18.1887 51.1545 18.15C51.232 18.1112 51.2925 18.0564 51.3358 17.9857C51.3814 17.9128 51.4042 17.8261 51.4042 17.7257C51.4042 17.6254 51.3814 17.5398 51.3358 17.4691C51.2925 17.3961 51.232 17.3402 51.1545 17.3015C51.0792 17.2604 50.9937 17.2399 50.8979 17.2399H50.2033V17.0209H50.915C51.0564 17.0209 51.183 17.0506 51.2948 17.1099C51.4065 17.1669 51.4943 17.2479 51.5582 17.3528C51.6243 17.4577 51.6574 17.582 51.6574 17.7257C51.6574 17.8671 51.6243 17.9914 51.5582 18.0986C51.4943 18.2036 51.4065 18.2857 51.2948 18.345C51.183 18.402 51.0564 18.4305 50.915 18.4305H50.2033ZM50.0425 19.3748V17.0209H50.2923V19.3748H50.0425ZM52.5107 19.3748V17.7668H52.7502V19.3748H52.5107ZM52.7502 18.4374L52.651 18.3929C52.651 18.1899 52.7 18.0291 52.7981 17.9105C52.8985 17.7919 53.0353 17.7326 53.2087 17.7326C53.2885 17.7326 53.3615 17.7474 53.4276 17.777C53.4938 17.8044 53.5554 17.8489 53.6124 17.9105L53.455 18.0781C53.4162 18.0348 53.3729 18.004 53.325 17.9857C53.2794 17.9675 53.2269 17.9584 53.1676 17.9584C53.0444 17.9584 52.9441 17.9994 52.8665 18.0815C52.789 18.1614 52.7502 18.28 52.7502 18.4374ZM54.9976 19.409C54.8357 19.409 54.6909 19.3725 54.5631 19.2995C54.4354 19.2266 54.3339 19.1262 54.2586 18.9985C54.1856 18.8707 54.1491 18.727 54.1491 18.5674C54.1491 18.41 54.1856 18.2686 54.2586 18.1431C54.3316 18.0154 54.4308 17.915 54.5563 17.842C54.6817 17.7691 54.822 17.7326 54.9771 17.7326C55.1231 17.7326 55.252 17.7656 55.3637 17.8318C55.4778 17.8979 55.5667 17.9903 55.6306 18.1089C55.6967 18.2252 55.7298 18.3598 55.7298 18.5126C55.7298 18.5309 55.7287 18.5525 55.7264 18.5776C55.7241 18.6004 55.7195 18.6278 55.7127 18.6598H54.3202V18.4545H55.5827L55.4972 18.5297C55.4994 18.4111 55.4789 18.3096 55.4356 18.2252C55.3945 18.1386 55.3341 18.0724 55.2542 18.0268C55.1767 17.9789 55.082 17.9549 54.9703 17.9549C54.8539 17.9549 54.7524 17.98 54.6658 18.0302C54.5791 18.0804 54.5107 18.1511 54.4605 18.2423C54.4126 18.3313 54.3886 18.4374 54.3886 18.5605C54.3886 18.6837 54.4137 18.792 54.4639 18.8856C54.5164 18.9791 54.5882 19.0521 54.6795 19.1045C54.773 19.157 54.8802 19.1832 55.0011 19.1832C55.0991 19.1832 55.1892 19.1661 55.2713 19.1319C55.3535 19.0954 55.423 19.0418 55.4801 18.9711L55.634 19.1285C55.5587 19.2174 55.4652 19.287 55.3535 19.3372C55.244 19.3851 55.1254 19.409 54.9976 19.409ZM57.0753 19.3748L56.3329 17.7668H56.5998L57.2259 19.173H57.0753L57.7049 17.7668H57.9649L57.2156 19.3748H57.0753ZM58.7098 19.3748V17.7668H58.9527V19.3748H58.7098ZM58.8295 17.4178C58.7839 17.4178 58.7451 17.4018 58.7132 17.3699C58.6813 17.3357 58.6653 17.2958 58.6653 17.2501C58.6653 17.2022 58.6813 17.1623 58.7132 17.1304C58.7451 17.0985 58.7839 17.0825 58.8295 17.0825C58.8797 17.0825 58.9196 17.0985 58.9493 17.1304C58.9812 17.1623 58.9972 17.2022 58.9972 17.2501C58.9972 17.2958 58.9812 17.3357 58.9493 17.3699C58.9196 17.4018 58.8797 17.4178 58.8295 17.4178ZM60.5672 19.409C60.419 19.409 60.2855 19.3725 60.1669 19.2995C60.0483 19.2266 59.9537 19.1273 59.8829 19.0019C59.8145 18.8742 59.7803 18.7316 59.7803 18.5742C59.7803 18.4146 59.8145 18.272 59.8829 18.1465C59.9537 18.0188 60.0483 17.9185 60.1669 17.8455C60.2855 17.7702 60.419 17.7326 60.5672 17.7326C60.6881 17.7326 60.7976 17.7565 60.8957 17.8044C60.9938 17.8523 61.0747 17.9207 61.1386 18.0097C61.2047 18.0964 61.2435 18.199 61.2549 18.3176V18.8206C61.2412 18.9369 61.2025 19.0395 61.1386 19.1285C61.077 19.2152 60.9972 19.2836 60.8991 19.3338C60.801 19.3839 60.6904 19.409 60.5672 19.409ZM60.6083 19.1798C60.72 19.1798 60.8181 19.1547 60.9025 19.1045C60.9869 19.0521 61.0531 18.9802 61.101 18.889C61.1489 18.7955 61.1728 18.6894 61.1728 18.5708C61.1728 18.4499 61.1477 18.3438 61.0975 18.2526C61.0496 18.1614 60.9835 18.0895 60.8991 18.0371C60.8147 17.9846 60.7166 17.9584 60.6049 17.9584C60.4931 17.9584 60.3939 17.9846 60.3072 18.0371C60.2205 18.0895 60.1521 18.1625 60.1019 18.256C60.054 18.3473 60.0301 18.4522 60.0301 18.5708C60.0301 18.6894 60.054 18.7955 60.1019 18.889C60.1521 18.9802 60.2205 19.0521 60.3072 19.1045C60.3962 19.1547 60.4965 19.1798 60.6083 19.1798ZM61.3986 19.3748H61.1591V18.9437L61.207 18.5468L61.1591 18.1602V16.9525H61.3986V19.3748ZM63.0715 19.409C62.9096 19.409 62.7647 19.3725 62.637 19.2995C62.5093 19.2266 62.4078 19.1262 62.3325 18.9985C62.2595 18.8707 62.223 18.727 62.223 18.5674C62.223 18.41 62.2595 18.2686 62.3325 18.1431C62.4055 18.0154 62.5047 17.915 62.6302 17.842C62.7556 17.7691 62.8959 17.7326 63.051 17.7326C63.197 17.7326 63.3259 17.7656 63.4376 17.8318C63.5517 17.8979 63.6406 17.9903 63.7045 18.1089C63.7706 18.2252 63.8037 18.3598 63.8037 18.5126C63.8037 18.5309 63.8026 18.5525 63.8003 18.5776C63.798 18.6004 63.7934 18.6278 63.7866 18.6598H62.3941V18.4545H63.6566L63.571 18.5297C63.5733 18.4111 63.5528 18.3096 63.5095 18.2252C63.4684 18.1386 63.408 18.0724 63.3281 18.0268C63.2506 17.9789 63.1559 17.9549 63.0442 17.9549C62.9278 17.9549 62.8263 17.98 62.7397 18.0302C62.653 18.0804 62.5846 18.1511 62.5344 18.2423C62.4865 18.3313 62.4625 18.4374 62.4625 18.5605C62.4625 18.6837 62.4876 18.792 62.5378 18.8856C62.5903 18.9791 62.6621 19.0521 62.7533 19.1045C62.8469 19.157 62.9541 19.1832 63.075 19.1832C63.173 19.1832 63.2631 19.1661 63.3452 19.1319C63.4274 19.0954 63.4969 19.0418 63.5539 18.9711L63.7079 19.1285C63.6326 19.2174 63.5391 19.287 63.4274 19.3372C63.3179 19.3851 63.1993 19.409 63.0715 19.409ZM62.5925 17.5204L62.4831 17.411L62.9518 16.8841H63.1434L63.6121 17.411L63.5026 17.5204L62.9689 17.0551L63.1297 17.0586L62.5925 17.5204ZM65.785 19.3748V18.4305C65.785 18.2891 65.7428 18.1751 65.6584 18.0884C65.5763 17.9994 65.4668 17.9549 65.3299 17.9549C65.2364 17.9549 65.1543 17.9755 65.0836 18.0165C65.0129 18.0576 64.957 18.1135 64.9159 18.1842C64.8749 18.2549 64.8544 18.3359 64.8544 18.4271L64.7449 18.3655C64.7449 18.2446 64.7734 18.1363 64.8304 18.0405C64.8874 17.9447 64.9638 17.8694 65.0596 17.8147C65.1577 17.7599 65.2695 17.7326 65.3949 17.7326C65.5181 17.7326 65.6276 17.7622 65.7234 17.8215C65.8192 17.8808 65.8933 17.9607 65.9458 18.061C66.0005 18.1614 66.0279 18.2709 66.0279 18.3895V19.3748H65.785ZM64.6149 19.3748V17.7668H64.8544V19.3748H64.6149ZM67.6528 19.409C67.4955 19.409 67.3529 19.3725 67.2252 19.2995C67.0997 19.2243 66.9994 19.1228 66.9241 18.995C66.8511 18.8673 66.8146 18.7248 66.8146 18.5674C66.8146 18.41 66.8511 18.2686 66.9241 18.1431C66.9994 18.0154 67.0997 17.915 67.2252 17.842C67.3529 17.7691 67.4955 17.7326 67.6528 17.7326C67.7737 17.7326 67.8866 17.7554 67.9916 17.801C68.0965 17.8466 68.1854 17.9105 68.2584 17.9926L68.101 18.1534C68.0463 18.0918 67.9802 18.045 67.9026 18.0131C67.8251 17.9789 67.7418 17.9618 67.6528 17.9618C67.5388 17.9618 67.4373 17.988 67.3483 18.0405C67.2594 18.0929 67.1898 18.1648 67.1396 18.256C67.0895 18.345 67.0644 18.4488 67.0644 18.5674C67.0644 18.6837 67.0895 18.7886 67.1396 18.8821C67.1898 18.9734 67.2594 19.0452 67.3483 19.0977C67.4373 19.1501 67.5388 19.1764 67.6528 19.1764C67.7441 19.1764 67.8285 19.1604 67.906 19.1285C67.9836 19.0943 68.0497 19.0464 68.1045 18.9848L68.2653 19.1456C68.19 19.23 68.0988 19.295 67.9916 19.3406C67.8866 19.3862 67.7737 19.409 67.6528 19.409ZM69.0461 19.3748V17.7668H69.289V19.3748H69.0461ZM69.1658 17.4178C69.1202 17.4178 69.0814 17.4018 69.0495 17.3699C69.0176 17.3357 69.0016 17.2958 69.0016 17.2501C69.0016 17.2022 69.0176 17.1623 69.0495 17.1304C69.0814 17.0985 69.1202 17.0825 69.1658 17.0825C69.216 17.0825 69.2559 17.0985 69.2856 17.1304C69.3175 17.1623 69.3335 17.2022 69.3335 17.2501C69.3335 17.2958 69.3175 17.3357 69.2856 17.3699C69.2559 17.4018 69.216 17.4178 69.1658 17.4178ZM70.9172 19.409C70.7644 19.409 70.6275 19.3725 70.5066 19.2995C70.3857 19.2243 70.2899 19.1239 70.2192 18.9985C70.1508 18.873 70.1166 18.7316 70.1166 18.5742C70.1166 18.4146 70.1508 18.272 70.2192 18.1465C70.2899 18.0188 70.3857 17.9185 70.5066 17.8455C70.6275 17.7702 70.7632 17.7326 70.9138 17.7326C71.0369 17.7326 71.1464 17.7577 71.2422 17.8078C71.3403 17.8557 71.419 17.9242 71.4783 18.0131C71.5399 18.0998 71.5775 18.2013 71.5912 18.3176V18.8206C71.5775 18.9369 71.5399 19.0395 71.4783 19.1285C71.419 19.2174 71.3403 19.287 71.2422 19.3372C71.1464 19.3851 71.0381 19.409 70.9172 19.409ZM70.9548 19.1798C71.1213 19.1798 71.2548 19.1239 71.3551 19.0122C71.4578 18.9004 71.5091 18.7533 71.5091 18.5708C71.5091 18.4499 71.4851 18.3438 71.4372 18.2526C71.3916 18.1591 71.3266 18.0872 71.2422 18.0371C71.1601 17.9846 71.0632 17.9584 70.9514 17.9584C70.8373 17.9584 70.7358 17.9846 70.6469 18.0371C70.5602 18.0895 70.4906 18.1625 70.4382 18.256C70.388 18.3473 70.3629 18.4522 70.3629 18.5708C70.3629 18.6894 70.388 18.7943 70.4382 18.8856C70.4906 18.9768 70.5614 19.0486 70.6503 19.1011C70.7393 19.1536 70.8408 19.1798 70.9548 19.1798ZM71.4954 19.3748V18.9437L71.5433 18.5468L71.4954 18.1602V17.7668H71.7349V19.3748H71.4954Z" fill="black"/>
</svg>
