<svg width="24" height="25" viewBox="0 0 24 25" fill="none" xmlns="http://www.w3.org/2000/svg">
<g id="icon/24px/help">
<mask id="mask0_199_213" style="mask-type:alpha" maskUnits="userSpaceOnUse" x="0" y="0" width="24" height="25">
<rect id="Bounding box" y="0.59082" width="24" height="24" fill="#D9D9D9"/>
</mask>
<g mask="url(#mask0_199_213)">
<g id="help">
<path d="M12 18.2158C12.2833 18.2158 12.521 18.1158 12.713 17.9158C12.9043 17.7158 13 17.4742 13 17.1908C13 16.9075 12.9043 16.6658 12.713 16.4658C12.521 16.2658 12.2833 16.1658 12 16.1658C11.7 16.1658 11.4543 16.2658 11.263 16.4658C11.071 16.6658 10.975 16.9075 10.975 17.1908C10.975 17.4742 11.071 17.7158 11.263 17.9158C11.4543 18.1158 11.7 18.2158 12 18.2158ZM11.275 14.6158H12.7C12.7 14.1325 12.7667 13.7448 12.9 13.4528C13.0333 13.1615 13.35 12.7658 13.85 12.2658C14.3 11.8325 14.6417 11.4282 14.875 11.0528C15.1083 10.6782 15.225 10.2408 15.225 9.74082C15.225 8.87415 14.9167 8.19915 14.3 7.71582C13.6833 7.23249 12.95 6.99082 12.1 6.99082C11.2667 6.99082 10.575 7.21582 10.025 7.66582C9.475 8.11582 9.08333 8.64082 8.85 9.24082L10.15 9.74082C10.2667 9.42415 10.471 9.10749 10.763 8.79082C11.0543 8.47415 11.4917 8.31582 12.075 8.31582C12.675 8.31582 13.1167 8.47815 13.4 8.80282C13.6833 9.12815 13.825 9.48249 13.825 9.86582C13.825 10.1992 13.725 10.5075 13.525 10.7908C13.325 11.0742 13.075 11.3492 12.775 11.6158C12.125 12.1992 11.7127 12.6702 11.538 13.0288C11.3627 13.3868 11.275 13.9158 11.275 14.6158ZM12 22.0908C10.6833 22.0908 9.45 21.8408 8.3 21.3408C7.15 20.8408 6.14567 20.1658 5.287 19.3158C4.429 18.4658 3.75 17.4615 3.25 16.3028C2.75 15.1448 2.5 13.9075 2.5 12.5908C2.5 11.2742 2.75 10.0365 3.25 8.87782C3.75 7.71982 4.429 6.71582 5.287 5.86582C6.14567 5.01582 7.15 4.34082 8.3 3.84082C9.45 3.34082 10.6833 3.09082 12 3.09082C13.3333 3.09082 14.575 3.34082 15.725 3.84082C16.875 4.34082 17.8793 5.01582 18.738 5.86582C19.596 6.71582 20.271 7.71982 20.763 8.87782C21.2543 10.0365 21.5 11.2742 21.5 12.5908C21.5 13.9075 21.2543 15.1448 20.763 16.3028C20.271 17.4615 19.596 18.4658 18.738 19.3158C17.8793 20.1658 16.875 20.8408 15.725 21.3408C14.575 21.8408 13.3333 22.0908 12 22.0908ZM12 20.5908C14.2333 20.5908 16.125 19.8118 17.675 18.2538C19.225 16.6952 20 14.8075 20 12.5908C20 10.3742 19.225 8.48649 17.675 6.92782C16.125 5.36982 14.2333 4.59082 12 4.59082C9.8 4.59082 7.91667 5.36982 6.35 6.92782C4.78333 8.48649 4 10.3742 4 12.5908C4 14.8075 4.78333 16.6952 6.35 18.2538C7.91667 19.8118 9.8 20.5908 12 20.5908Z" fill="#676767"/>
</g>
</g>
</g>
</svg>
